<?xml version="1.0" encoding="UTF-8"?>
<svg id="Layer_2" data-name="Layer 2" xmlns="http://www.w3.org/2000/svg" viewBox="0 0 431.25 313.47">
  <defs>
    <style>
      .cls-1 {
        fill: #ed2024;
      }
    </style>
  </defs>
  <g id="Layer_1-2" data-name="Layer 1">
    <g>
      <path class="cls-1" d="m116.61,214.21c-1.89-1.6-4.18-2.23-6.11-1.68l-15.17,4.29c-3.72,1.05-6.02,4.32-6.02,8.52v35.63c0,2.2,1.13,4.47,3.01,6.07.99.84,2.09,1.42,3.2,1.69,1,.25,2,.25,2.92,0l15.17-4.29h0c3.71-1.05,6.02-4.32,6.02-8.52v-35.63c0-2.17-1.15-4.5-3.01-6.08Zm-7.37,39.13c0,.36-.2.64-.52.73l-9.05,2.56v-28.7c0-.36.2-.64.51-.73l9.05-2.56v28.7Z"/>
      <path class="cls-1" d="m154.16,205.53c-2.84-2.41-6.28-3.36-9.2-2.53l-16.59,4.69v52.96l10.38-2.93v-17.48l8.67-2.45c.08-.02.31-.09.6.17.3.25.3.5.3.6v16.46l10.38-2.93v-10.94c0-2.95-1.14-5.97-3.14-8.49,2.02-2.63,3.14-6.05,3.14-9.93v-8.05c0-3.31-1.69-6.73-4.53-9.14Zm-5.85,14.61c0,3.48-1.91,6.19-4.99,7.05l-4.58,1.3v-11.98l9.57-2.7v6.33Z"/>
      <path class="cls-1" d="m191.47,162.46v-40.32l33.44-9.46v44.53l14.28-4.04c2.29-.65,3.72-2.67,3.72-5.26V44.37c0-2.11-1.1-4.33-2.91-5.87l-7.41-6.29c-1.81-1.53-4.05-2.15-5.91-1.62l-30.44,8.61c-14.05,3.97-22.78,16.32-22.78,32.23v100.33l14.28-4.04c2.29-.65,3.72-2.67,3.72-5.26Zm0-86.56c0-9.24,5.07-16.41,13.22-18.71l20.22-5.72v40.83l-33.44,9.46v-25.85Z"/>
      <path class="cls-1" d="m348.29,8.1l-7.4-6.29c-1.8-1.53-4.04-2.15-5.9-1.63l-52.9,14.92c-14.06,3.97-22.8,16.32-22.8,32.24v100.54l14.28-4.04c2.29-.65,3.72-2.67,3.72-5.26V51.82c0-9.22,5.09-16.42,13.24-18.72l5.72-1.61v105.94l14.28-4.04c2.29-.65,3.72-2.67,3.72-5.26V26.41l18.96-5.35v105.91l14.28-4.04c2.29-.65,3.72-2.67,3.72-5.26V13.97c0-2.11-1.1-4.33-2.91-5.86Z"/>
      <path class="cls-1" d="m90.56,183.33l7.4,6.29c1.8,1.53,4.05,2.15,5.91,1.62l44.35-12.54c2.68-.76,4.92-2.33,6.48-4.54,1.56-2.21,2.39-4.98,2.39-8.02v-34.61l-14.28,4.04c-2.29.65-3.72,2.67-3.72,5.26v20.07l-33.44,9.46v-70.48c0-9.24,5.07-16.41,13.22-18.71l20.22-5.72v26.63l14.28-4.04c2.29-.65,3.72-2.67,3.72-5.26v-24.44c0-2.11-1.1-4.33-2.91-5.87l-7.4-6.29c-1.81-1.53-4.05-2.15-5.91-1.62l-30.44,8.61c-14.05,3.97-22.78,16.32-22.78,32.23v82.06c0,2.11,1.1,4.33,2.91,5.87Z"/>
      <path class="cls-1" d="m68.37,86.58l-7.41-6.29c-1.81-1.53-4.05-2.15-5.91-1.62l-43.56,12.32c-7.1,2.01-11.5,8.24-11.5,16.28v14.89c0,9.34,5.96,19.09,14.83,24.25l38.46,22.37v42.92c0,4.65-2.57,8.28-6.67,9.44l-28.61,8.09v-43.04l-14.28,4.04c-2.29.65-3.72,2.67-3.72,5.26v40.85c0,2.11,1.1,4.33,2.91,5.87l7.41,6.29c1.8,1.53,4.05,2.15,5.91,1.62l38.84-10.98c10.01-2.83,16.23-11.63,16.23-22.96v-43.15c0-7.62-4.87-15.59-12.1-19.79l-38.67-22.49c-1.5-.87-2.51-2.53-2.51-4.11v-14.89c0-1.36.75-2.42,1.95-2.76l33.33-9.43v28.81l14.28-4.04c2.29-.65,3.72-2.67,3.72-5.26v-26.62c0-2.11-1.1-4.33-2.91-5.87Z"/>
      <path class="cls-1" d="m338.52,151.27c-3.53-3-7.82-4.18-11.46-3.15l-39.13,11.07c-8.15,2.3-13.21,9.47-13.21,18.69v91.9c0,4.12,2.11,8.38,5.64,11.38,1.86,1.58,3.92,2.65,5.99,3.17,1.87.46,3.74.47,5.47-.02l39.13-11.07h0c8.15-2.31,13.21-9.47,13.21-18.69v-91.9c0-4.12-2.11-8.38-5.64-11.38Zm-12.36,98.8c0,2.55-1.4,4.53-3.66,5.17l-29.79,8.42v-81.31c0-2.55,1.4-4.53,3.66-5.17l29.79-8.42v81.31Z"/>
      <path class="cls-1" d="m239.28,175.31v78.38l-46.13-69.81-8.08,2.28c-2.29.65-3.72,2.67-3.72,5.26v122.04l14.28-4.04c2.29-.65,3.72-2.67,3.72-5.26v-82.13l46.81,73.36,7.39-2.09c2.29-.65,3.72-2.67,3.72-5.26v-122.04l-14.28,4.04c-2.29.65-3.72,2.67-3.72,5.26Z"/>
      <path class="cls-1" d="m420.84,121.04l-13.22,3.74-28.94,8.18-6.81,1.93-6.06,1.71-4.23,1.19s0,0,0,0l-3.71,1.05c-2.29.65-3.72,2.67-3.72,5.26v16.18l3.72-1.05h0l10.41-2.94,4.96-1.4,10.1-2.85,1.59-.45v107.58l14.28-4.04c2.29-.65,3.72-2.67,3.72-5.26v-103.37l2.12-.6,8.31-2.35,10.46-2.96s0,0,0,0l3.71-1.05c2.29-.65,3.72-2.67,3.72-5.26v-16.18l-10.41,2.94Z"/>
    </g>
  </g>
</svg>