<?xml version="1.0" encoding="UTF-8"?>
<svg id="Layer_2" data-name="Layer 2" xmlns="http://www.w3.org/2000/svg" viewBox="0 0 82.16 81.08">
  <defs>
    <style>
      .cls-1 {
        fill: #231f20;
      }
    </style>
  </defs>
  <g id="Layer_1-2" data-name="Layer 1">
    <path class="cls-1" d="m80.38,19.86h-10.07c-.04-.15-.08-.31-.14-.46l-4.24-11.54c-1.72-4.7-7.07-7.85-13.31-7.85h-23.1c-6.23,0-11.58,3.16-13.31,7.85l-4.24,11.54c-.06.15-.1.3-.14.46H1.78c-.98,0-1.78.8-1.78,1.78v3.41c0,.98.8,1.78,1.78,1.78h7.69c-3.01,5.29-4.74,11.4-4.74,17.91,0,20.04,16.31,36.35,36.35,36.35s36.35-16.31,36.35-36.35c0-6.51-1.73-12.62-4.74-17.91h7.69c.98,0,1.78-.8,1.78-1.78v-3.41c0-.98-.8-1.78-1.78-1.78Zm-39.3,52.57c-15.27,0-27.69-12.42-27.69-27.69,0-1.71.16-3.38.46-5h3.52c.93,0,1.69.76,1.69,1.69v5.01c0,3.4,2.75,6.15,6.15,6.15h7.35c3.4,0,6.15-2.75,6.15-6.15v-4.32c0-1.31,1.06-2.37,2.37-2.37s2.37,1.06,2.37,2.37v4.32c0,3.4,2.75,6.15,6.15,6.15h7.36c3.4,0,6.15-2.75,6.15-6.15v-5.01c0-.93.76-1.69,1.69-1.69h3.52c.3,1.62.46,3.29.46,5,0,15.27-12.42,27.69-27.69,27.69Zm25.57-38.33H15.52c1.11-2.66,2.63-5.11,4.47-7.27h42.19c1.84,2.17,3.36,4.61,4.47,7.27Z"/>
  </g>
</svg>