<?xml version="1.0" encoding="UTF-8"?>
<svg id="Layer_2" data-name="Layer 2" xmlns="http://www.w3.org/2000/svg" viewBox="0 0 68.54 81.08">
  <defs>
    <style>
      .cls-1 {
        fill: #00aeef;
      }

      .cls-2 {
        fill: #eebb1d;
      }

      .cls-3 {
        fill: #754c29;
      }
    </style>
  </defs>
  <g id="Layer_1-2" data-name="Layer 1">
    <g>
      <path class="cls-2" d="m34.27,81.08C15.37,81.08,0,65.71,0,46.81S15.37,12.54,34.27,12.54s34.27,15.37,34.27,34.27-15.37,34.27-34.27,34.27Z"/>
      <path class="cls-1" d="m34.27,27.55C18.07,27.55.63,23.24.63,13.77S18.07,0,34.27,0s33.64,4.31,33.64,13.77-17.44,13.77-33.64,13.77ZM8.26,13.77c.83,1.79,9.67,6.17,26.01,6.17s25.18-4.38,26.01-6.17c-.83-1.79-9.66-6.17-26.01-6.17s-25.18,4.38-26.01,6.17Z"/>
      <g>
        <path class="cls-3" d="m20.55,48.49c-2.97,0-5.75-1.16-7.85-3.25-.98-.98-.98-2.56,0-3.54.98-.98,2.56-.98,3.54,0,1.15,1.15,2.69,1.79,4.32,1.79s3.16-.63,4.32-1.79c.98-.98,2.56-.98,3.54,0,.98.98.98,2.56,0,3.54-2.1,2.1-4.89,3.25-7.85,3.25Z"/>
        <path class="cls-3" d="m47.99,48.49c-2.97,0-5.75-1.16-7.85-3.25-.98-.98-.98-2.56,0-3.54.98-.98,2.56-.98,3.54,0,1.15,1.15,2.69,1.79,4.32,1.79s3.16-.63,4.32-1.79c.98-.98,2.56-.98,3.54,0,.98.98.98,2.56,0,3.54-2.1,2.1-4.89,3.25-7.85,3.25Z"/>
      </g>
      <path class="cls-3" d="m34.27,67.84c-4.39,0-8.78-1.67-12.12-5.01-.98-.98-.98-2.56,0-3.54.98-.98,2.56-.98,3.54,0,4.73,4.73,12.44,4.73,17.17,0,.98-.98,2.56-.98,3.54,0,.98.98.98,2.56,0,3.54-3.34,3.34-7.73,5.01-12.12,5.01Z"/>
    </g>
  </g>
</svg>