<?xml version="1.0" encoding="UTF-8"?>
<svg id="Layer_2" data-name="Layer 2" xmlns="http://www.w3.org/2000/svg" viewBox="0 0 445.21 344.04">
  <defs>
    <style>
      .cls-1 {
        fill: #ed2024;
      }
    </style>
  </defs>
  <g id="Layer_1-2" data-name="Layer 1">
    <g>
      <path class="cls-1" d="m129.93,263.31c-2.3-1.38-5.08-1.45-7.44-.19l-18.46,9.81c-4.52,2.4-7.33,7.07-7.33,12.19v43.35c0,2.68,1.37,5.1,3.66,6.48,1.21.73,2.55,1.09,3.89,1.09,1.21,0,2.43-.3,3.55-.89l18.46-9.81h0c4.52-2.4,7.33-7.08,7.33-12.19v-43.35c0-2.64-1.41-5.12-3.67-6.48Zm-8.96,49.83c0,.44-.24.84-.63,1.04l-11.01,5.85v-34.92c0-.44.24-.84.63-1.04l11.01-5.85v34.92Z"/>
      <path class="cls-1" d="m171.37,243.17c-3.45-2.08-7.64-2.18-11.19-.3l-20.19,10.73v64.44l12.63-6.71v-21.26l10.55-5.6c.1-.05.37-.2.73.02.36.22.36.52.36.64v20.03l12.63-6.71v-13.32c0-3.59-1.39-6.91-3.83-9.38,2.46-3.81,3.83-8.31,3.83-13.03v-9.8c0-4.03-2.06-7.67-5.51-9.74Zm-7.12,19.54c0,4.24-2.32,8.1-6.07,10.09l-5.57,2.96v-14.57l11.64-6.18v7.71Z"/>
      <path class="cls-1" d="m224.91,140.57v44.53l14.28-7.59c2.29-1.21,3.72-3.59,3.72-6.18v-103.55c0-2.11-1.1-4.06-2.91-5.14l-7.41-4.45c-1.81-1.08-4.05-1.14-5.91-.16l-30.44,16.18c-14.05,7.47-22.78,21.99-22.78,37.9v100.33l14.28-7.59c2.29-1.21,3.72-3.59,3.72-6.18v-40.32l33.44-17.77Zm-20.22-50.47l20.22-10.74v40.83l-33.44,17.77v-25.85c0-9.24,5.07-17.67,13.22-22Z"/>
      <path class="cls-1" d="m296.24,147.58l14.28-7.59c2.29-1.21,3.72-3.59,3.72-6.18V32.08l18.96-10.06v105.91l14.28-7.59c2.29-1.21,3.72-3.59,3.72-6.18V10.45c0-2.11-1.1-4.06-2.91-5.14l-7.4-4.45c-1.8-1.09-4.04-1.15-5.9-.16l-52.9,28.07c-14.06,7.46-22.8,21.99-22.8,37.91v100.54l14.28-7.59c2.29-1.21,3.72-3.59,3.72-6.18v-86.76c0-9.22,5.09-17.69,13.24-22.01l5.72-3.04v105.94Z"/>
      <path class="cls-1" d="m103.87,249.23l44.35-23.57c2.68-1.42,4.92-3.55,6.48-6.15h0c1.56-2.6,2.39-5.58,2.39-8.61v-34.61l-14.28,7.59c-2.29,1.21-3.72,3.59-3.72,6.18v20.07l-33.44,17.77v-70.48c0-9.24,5.07-17.67,13.22-22l20.22-10.74v26.63l14.28-7.59c2.29-1.21,3.72-3.59,3.72-6.18v-24.44c0-2.11-1.1-4.06-2.91-5.14l-7.4-4.45c-1.81-1.08-4.05-1.14-5.91-.16l-30.44,16.18c-14.05,7.47-22.78,21.99-22.78,37.9v82.06c0,2.11,1.1,4.06,2.91,5.14l7.4,4.45c1.8,1.08,4.05,1.14,5.91.16Z"/>
      <path class="cls-1" d="m68.37,153.39l-7.41-4.45c-1.81-1.08-4.05-1.14-5.91-.16l-43.56,23.15c-7.1,3.77-11.5,11.1-11.5,19.14v14.89c0,9.34,5.96,17.61,14.83,20.56l38.46,12.81v56.38c0,4.65-2.57,8.92-6.67,11.1l-28.61,15.2v-56.5l-14.28,7.59c-2.29,1.21-3.72,3.59-3.72,6.18v54.3c0,2.11,1.1,4.06,2.91,5.14l7.41,4.45c1.81,1.08,4.05,1.14,5.91.16l38.84-20.64c10.01-5.32,16.23-15.66,16.23-27v-56.6c0-7.62-4.87-14.38-12.1-16.78l-38.67-12.88c-1.5-.5-2.51-1.9-2.51-3.48v-14.89c0-1.36.75-2.6,1.95-3.24l33.33-17.71v28.81l14.28-7.59c2.29-1.21,3.72-3.59,3.72-6.18v-26.62c0-2.11-1.1-4.06-2.91-5.14Z"/>
      <path class="cls-1" d="m357.87,142.77c-3.53-2.12-7.82-2.24-11.46-.3l-39.13,20.8c-8.15,4.33-13.21,12.75-13.21,21.98v91.9c0,4.12,2.11,7.85,5.64,9.98,1.86,1.12,3.92,1.68,5.99,1.68,1.87,0,3.74-.46,5.47-1.38l39.13-20.8h0c8.15-4.33,13.21-12.75,13.21-21.98v-91.9c0-4.12-2.11-7.85-5.64-9.98Zm-12.36,101.87c0,2.55-1.4,4.88-3.66,6.08l-29.79,15.83v-81.31c0-2.55,1.4-4.88,3.66-6.08l29.79-15.83v81.31Z"/>
      <path class="cls-1" d="m258.63,191.49v78.38l-46.13-58.34-8.08,4.29c-2.29,1.21-3.72,3.59-3.72,6.18v122.04l14.28-7.59c2.29-1.21,3.72-3.59,3.72-6.18v-82.13l46.81,61.72,7.39-3.93c2.29-1.21,3.72-3.59,3.72-6.18v-122.04l-14.28,7.59c-2.29,1.21-3.72,3.59-3.72,6.18Z"/>
      <path class="cls-1" d="m434.8,93.97l-13.22,7.02-28.94,15.38-10.41,5.53-6.69,3.56c-2.29,1.21-3.72,3.59-3.72,6.18v16.18l10.41-5.53,18.77-9.98v107.82l14.28-7.59c2.29-1.21,3.72-3.59,3.72-6.18v-103.61l22.48-11.95c2.29-1.21,3.72-3.59,3.72-6.18v-16.18l-10.41,5.53Z"/>
    </g>
  </g>
</svg>