<?xml version="1.0" encoding="UTF-8"?>
<svg id="Layer_2" data-name="Layer 2" xmlns="http://www.w3.org/2000/svg" viewBox="0 0 610.63 93.57">
  <defs>
    <style>
      .cls-1 {
        fill: #ed2024;
      }
    </style>
  </defs>
  <g id="Layer_1-2" data-name="Layer 1">
    <g>
      <g>
        <path class="cls-1" d="m349.09,37.23c-.96-1.6-2.65-2.56-4.52-2.55h-14.58c-3.57,0-6.83,1.96-8.51,5.11l-14.19,26.71c-.88,1.65-.82,3.59.14,5.19.51.84,1.21,1.5,2.04,1.94.75.4,1.59.61,2.48.61h14.58s0,0,0,0c3.57,0,6.83-1.96,8.5-5.11l14.19-26.71c.86-1.63.81-3.61-.14-5.19Zm-21.83,27.76c-.14.27-.42.44-.73.44h-8.7s11.43-21.51,11.43-21.51c.14-.27.42-.44.73-.44h8.7s-11.43,21.51-11.43,21.51Z"/>
        <path class="cls-1" d="m378.21,52.23l3.21-6.04c1.32-2.48,1.24-5.4-.21-7.81-1.45-2.41-3.99-3.85-6.8-3.85h-15.95s-21.09,39.7-21.09,39.7h9.98s6.96-13.1,6.96-13.1h8.33c.08,0,.29,0,.44.25.15.25.05.44.01.51l-6.55,12.34h9.98s4.36-8.2,4.36-8.2c1.17-2.21,1.41-4.71.71-7.03,2.76-1.54,5.08-3.87,6.62-6.77Zm-7.78-4.13c-1.39,2.61-4.08,4.23-7.04,4.23h-4.4s4.77-8.98,4.77-8.98h9.19s-2.52,4.75-2.52,4.75Z"/>
      </g>
      <path class="cls-1" d="m221.6,22.42l-3.11-5.16c-.76-1.26-2.12-2.03-3.59-2.03h-24.05c-11.1,0-21.23,6.1-26.43,15.9l-32.83,61.81h11.28c1.81,0,3.46-1,4.31-2.59l13.19-24.84h26.42s-14.57,27.43-14.57,27.43h11.28c1.81,0,3.46-1,4.31-2.59l33.88-63.79c.69-1.3.65-2.86-.11-4.12Zm-28.13,30.52h-26.42s8.46-15.92,8.46-15.92c3.02-5.69,8.9-9.23,15.35-9.23h15.97s-13.36,25.15-13.36,25.15Z"/>
      <path class="cls-1" d="m307.08,22.54l-3.1-5.17c-.76-1.26-2.12-2.03-3.59-2.03l-41.78-.02c-11.11,0-21.24,6.09-26.45,15.89l-32.9,61.94h11.28c1.81,0,3.46-1,4.31-2.59l28.39-53.45c3.02-5.68,8.92-9.23,15.36-9.23h4.52s-34.66,65.27-34.66,65.27h11.28c1.81,0,3.46-1,4.31-2.59l33.28-62.67h14.97s-34.66,65.25-34.66,65.25h11.28c1.81,0,3.46-1,4.31-2.59l33.94-63.89c.69-1.3.65-2.86-.11-4.12Z"/>
      <path class="cls-1" d="m122.06,65.31c-1.81,0-3.46,1-4.31,2.59l-6.57,12.36h-26.42s23.06-43.41,23.06-43.41c3.02-5.69,8.9-9.23,15.35-9.23h15.97s-8.71,16.4-8.71,16.4h11.28c1.81,0,3.46-1,4.31-2.59l8-15.06c.69-1.3.65-2.86-.11-4.12l-3.11-5.16c-.76-1.26-2.12-2.03-3.59-2.03h-24.05c-11.1,0-21.23,6.1-26.43,15.9l-26.85,50.55c-.69,1.3-.65,2.86.11,4.12l3.11,5.16c.76,1.26,2.12,2.03,3.59,2.03h35.03c2.12,0,4.19-.58,6.01-1.67,1.81-1.09,3.3-2.65,4.29-4.52l11.33-21.32h-11.28Z"/>
      <path class="cls-1" d="m67.32,46.65l-19.61-20.59c-.76-.8-.93-1.99-.41-2.97l4.87-9.17c.45-.84,1.31-1.36,2.26-1.36h26.33s-9.43,17.75-9.43,17.75h11.28c1.81,0,3.46-1,4.31-2.59l8.71-16.4c.69-1.3.65-2.86-.11-4.12l-3.11-5.16C91.67.77,90.31,0,88.84,0h-34.41c-5.6,0-10.72,3.08-13.35,8.03l-4.87,9.17c-3.06,5.76-2.09,12.8,2.41,17.52l19.5,20.47-12.4,20.72c-1.52,2.86-4.5,4.66-7.74,4.66H15.37s17.42-27.93,17.42-27.93h-11.28c-1.81,0-3.46,1-4.31,2.59L.49,81.82c-.69,1.3-.65,2.86.11,4.12l3.11,5.16c.76,1.26,2.12,2.03,3.59,2.03h30.68c7.91,0,15.12-4.35,18.83-11.33l12.48-20.86c2.49-4.69,1.7-10.45-1.96-14.3Z"/>
      <g>
        <path class="cls-1" d="m539.09,19.09c-1.5-2.45-4.12-3.9-6.99-3.88l-30.91.27c-6.44.06-12.28,3.64-15.25,9.35l-29.59,56.87c-1.33,2.55-1.22,5.54.28,7.99.79,1.29,1.89,2.3,3.17,2.97,1.16.6,2.46.92,3.83.91l30.91-.27h0c6.44-.06,12.28-3.64,15.25-9.35l29.59-56.87c1.33-2.55,1.22-5.54-.28-7.99Zm-40.45,59.06c-.82,1.58-2.44,2.57-4.22,2.59l-23.53.21,26.18-50.32c.82-1.58,2.44-2.57,4.22-2.59l23.53-.21-26.18,50.32Z"/>
        <path class="cls-1" d="m466.28,14.66c-1.81.02-3.46,1.03-4.29,2.63l-25.24,48.5-9.76-50.95-6.38.06c-1.81.02-3.46,1.03-4.29,2.63l-39.29,75.52,11.28-.1c1.81-.02,3.46-1.03,4.29-2.63l26.44-50.82,9.09,53.27,5.84-.05c1.81-.02,3.46-1.03,4.29-2.63l39.29-75.52-11.28.1Z"/>
        <path class="cls-1" d="m602.41,13.67l-10.44.09-22.86.2-8.22.07-5.29.05c-1.81.02-3.46,1.03-4.29,2.63l-5.21,10.01,8.22-.07,14.83-.13-34.71,66.72,11.28-.1c1.81-.02,3.46-1.03,4.29-2.63l33.36-64.12,17.76-.15c1.81-.02,3.46-1.03,4.29-2.63l5.21-10.01-8.22.07Z"/>
      </g>
    </g>
  </g>
</svg>