<svg xmlns="http://www.w3.org/2000/svg" xmlns:xlink="http://www.w3.org/1999/xlink" viewBox="0,0,256,256" width="24px" height="24px" fill-rule="nonzero"><g fill="#ffffff" fill-rule="nonzero" stroke="none" stroke-width="1" stroke-linecap="butt" stroke-linejoin="miter" stroke-miterlimit="10" stroke-dasharray="" stroke-dashoffset="0" font-family="none" font-weight="none" font-size="none" text-anchor="none" style="mix-blend-mode: normal"><g transform="scale(10.66667,10.66667)"><path d="M20,0c-2.21094,0 -4,1.78906 -4,4c0,0.27734 0.03906,0.55078 0.09375,0.8125l-9.09375,4.5625c-0.73437,-0.83984 -1.79687,-1.375 -3,-1.375c-2.21094,0 -4,1.78906 -4,4c0,2.21094 1.78906,4 4,4c1.20313,0 2.26563,-0.53516 3,-1.375l9.09375,4.5625c-0.05469,0.26172 -0.09375,0.53516 -0.09375,0.8125c0,2.21094 1.78906,4 4,4c2.21094,0 4,-1.78906 4,-4c0,-2.21094 -1.78906,-4 -4,-4c-1.20312,0 -2.26562,0.53516 -3,1.375l-9.09375,-4.5625c0.05469,-0.26172 0.09375,-0.53516 0.09375,-0.8125c0,-0.27734 -0.03906,-0.55078 -0.09375,-0.8125l9.09375,-4.5625c0.73438,0.83984 1.79688,1.375 3,1.375c2.21094,0 4,-1.78906 4,-4c0,-2.21094 -1.78906,-4 -4,-4z"></path></g></g></svg>